<?xml version="1.0" encoding="UTF-8" standalone="no"?>
<svg
   xmlns:dc="http://purl.org/dc/elements/1.1/"
   xmlns:cc="http://creativecommons.org/ns#"
   xmlns:rdf="http://www.w3.org/1999/02/22-rdf-syntax-ns#"
   xmlns:svg="http://www.w3.org/2000/svg"
   xmlns="http://www.w3.org/2000/svg"
   xmlns:sodipodi="http://sodipodi.sourceforge.net/DTD/sodipodi-0.dtd"
   xmlns:inkscape="http://www.inkscape.org/namespaces/inkscape"
   width="2500"
   height="2500"
   viewBox="0 0 256 256.0241"
   preserveAspectRatio="xMinYMin meet"
   version="1.1"
   id="svg4"
   sodipodi:docname="flux.svg"
   inkscape:version="0.92.4 (unknown)">
  <metadata
     id="metadata10">
    <rdf:RDF>
      <cc:Work
         rdf:about="">
        <dc:format>image/svg+xml</dc:format>
        <dc:type
           rdf:resource="http://purl.org/dc/dcmitype/StillImage" />
        <dc:title></dc:title>
      </cc:Work>
    </rdf:RDF>
  </metadata>
  <defs
     id="defs8" />
  <sodipodi:namedview
     pagecolor="#ffffff"
     bordercolor="#666666"
     borderopacity="1"
     objecttolerance="10"
     gridtolerance="10"
     guidetolerance="10"
     inkscape:pageopacity="0"
     inkscape:pageshadow="2"
     inkscape:window-width="1920"
     inkscape:window-height="1025"
     id="namedview6"
     showgrid="false"
     inkscape:zoom="0.1004"
     inkscape:cx="-54.780876"
     inkscape:cy="498"
     inkscape:window-x="0"
     inkscape:window-y="0"
     inkscape:window-maximized="1"
     inkscape:current-layer="svg4" />
  <path
     d="m 205.033,77.030846 a 50.722,50.722 0 0 0 -27.301,7.939 l -49.733,36.526004 -26.214,-19.25 c -1.58,2.564 -3.17,5.112 -4.692,7.75 -0.367,0.635 -0.707,1.278 -1.068,1.912 l 21.911,16.09 -45.978,33.762 a 39.626,39.626 0 0 1 -20.994,6.005 c -21.926,0 -39.767,-17.839 -39.767,-39.767 0,-21.929 17.838,-39.767004 39.767,-39.767004 a 39.593,39.593 0 0 1 20.994,6.004 l 4.57,3.354 c 1.889,-3.264 3.846,-6.452 5.822,-9.617 l -4.085,-3 a 50.69,50.69 0 0 0 -27.301,-7.937 C 22.819,77.033846 0,99.852846 0,127.99785 c 0,28.145 22.816,50.963 50.964,50.963 10.048,0 19.409,-2.92 27.301,-7.938 l 49.735,-36.524 26.315,19.325 c 1.612,-2.641 3.22,-5.291 4.811,-8.052 0.315,-0.547 0.6,-1.09 0.911,-1.638 l -21.972,-16.136 45.975,-33.763004 a 39.634,39.634 0 0 1 20.994,-6.004 c 21.929,0 39.767,17.838004 39.767,39.767004 0,21.928 -17.838,39.767 -39.767,39.767 a 39.6,39.6 0 0 1 -20.994,-6.005 l -4.504,-3.307 a 406.479,406.479 0 0 1 -5.78,9.646 l 3.98,2.92 a 50.697,50.697 0 0 0 27.301,7.94 c 28.145,0 50.964,-22.82 50.964,-50.964 -0.004,-28.145004 -22.82,-50.964004 -50.968,-50.964004 z"
     id="path2"
     inkscape:connector-curvature="0"
     style="fill:#44b74a" />
</svg>
