<?xml version="1.0" encoding="UTF-8" standalone="no"?>
<svg
   xmlns:dc="http://purl.org/dc/elements/1.1/"
   xmlns:cc="http://creativecommons.org/ns#"
   xmlns:rdf="http://www.w3.org/1999/02/22-rdf-syntax-ns#"
   xmlns:svg="http://www.w3.org/2000/svg"
   xmlns="http://www.w3.org/2000/svg"
   xmlns:sodipodi="http://sodipodi.sourceforge.net/DTD/sodipodi-0.dtd"
   xmlns:inkscape="http://www.inkscape.org/namespaces/inkscape"
   height="32"
   version="1.1"
   viewBox="0 0 32 32"
   width="32"
   id="svg13"
   sodipodi:docname="github.svg"
   inkscape:version="0.92.4 (unknown)">
  <metadata
     id="metadata17">
    <rdf:RDF>
      <cc:Work
         rdf:about="">
        <dc:format>image/svg+xml</dc:format>
        <dc:type
           rdf:resource="http://purl.org/dc/dcmitype/StillImage" />
        <dc:title></dc:title>
      </cc:Work>
    </rdf:RDF>
  </metadata>
  <sodipodi:namedview
     pagecolor="#ffffff"
     bordercolor="#666666"
     borderopacity="1"
     objecttolerance="10"
     gridtolerance="10"
     guidetolerance="10"
     inkscape:pageopacity="0"
     inkscape:pageshadow="2"
     inkscape:window-width="1920"
     inkscape:window-height="1025"
     id="namedview15"
     showgrid="false"
     fit-margin-top="0"
     fit-margin-left="0"
     fit-margin-right="0"
     fit-margin-bottom="0"
     inkscape:zoom="3.9333333"
     inkscape:cx="18.461536"
     inkscape:cy="18.461539"
     inkscape:window-x="0"
     inkscape:window-y="0"
     inkscape:window-maximized="1"
     inkscape:current-layer="svg13" />
  <desc
     id="desc4" />
  <defs
     id="defs6" />
  <g
     id="black"
     transform="matrix(0.86666667,0,0,0.86666667,-10.000003,-10)"
     style="fill:none;fill-rule:evenodd;stroke:none;stroke-width:1">
    <g
       id="slice"
       transform="translate(-900,-500)" />
    <g
       id="github"
       transform="translate(11,11)"
       style="fill:#000000">
      <path
         d="m 14.425274,36.516889 c 0,-0.449716 -0.01587,-1.639662 -0.02493,-3.220059 -5.1351631,1.143464 -6.2186359,-2.537931 -6.2186359,-2.537931 -0.8398048,-2.18699 -2.0502117,-2.76918 -2.0502117,-2.76918 -1.6762096,-1.174839 0.126934,-1.150436 0.126934,-1.150436 1.8530106,0.133637 2.8276828,1.951093 2.8276828,1.951093 1.6467428,2.892358 4.3202908,2.058002 5.3731638,1.573424 0.167734,-1.223645 0.644871,-2.058002 1.171874,-2.530959 -4.099291,-0.477605 -8.4093817,-2.10216 -8.4093817,-9.355715 0,-2.066137 0.7196707,-3.755766 1.9006108,-5.079349 -0.1892678,-0.478767 -0.823938,-2.403132 0.1813344,-5.0096247 0,0 1.5504085,-0.5089807 5.0762285,1.9406337 1.472209,-0.4195019 3.052084,-0.6309962 4.622893,-0.6379685 1.567409,0.00697 3.146152,0.2184666 4.62176,0.6379685 3.523553,-2.4496144 5.071696,-1.9406337 5.071696,-1.9406337 1.007539,2.6053307 0.374002,4.5296957 0.183601,5.0096247 1.183206,1.323583 1.89721,3.013212 1.89721,5.079349 0,7.272148 -4.316891,8.8723 -8.429781,9.340609 0.664137,0.584514 1.253474,1.739598 1.253474,3.505924 0,2.530959 -0.0238,4.572692 -0.0238,5.19323 0,0.506656 0.333202,1.094657 1.270474,0.90989 7.329308,-2.507718 12.614072,-9.598586 12.614072,-17.958419 0,-10.4550214 -8.266581,-18.92989846 -18.462106,-18.92989846 -10.194391,0 -18.46097146,8.47487706 -18.46097146,18.92989846 0.001133,8.362157 5.29043016,15.457674 12.62653846,17.960743 0.922539,0.173146 1.260274,-0.411368 1.260274,-0.912214 z"
         id="path9"
         inkscape:connector-curvature="0" />
    </g>
  </g>
</svg>
