<?xml version="1.0" encoding="UTF-8" standalone="no"?>
<svg
   xmlns:dc="http://purl.org/dc/elements/1.1/"
   xmlns:cc="http://creativecommons.org/ns#"
   xmlns:rdf="http://www.w3.org/1999/02/22-rdf-syntax-ns#"
   xmlns:svg="http://www.w3.org/2000/svg"
   xmlns="http://www.w3.org/2000/svg"
   xmlns:sodipodi="http://sodipodi.sourceforge.net/DTD/sodipodi-0.dtd"
   xmlns:inkscape="http://www.inkscape.org/namespaces/inkscape"
   version="1.1"
   id="svg4"
   sodipodi:docname="typescript.svg"
   width="40"
   height="40"
   inkscape:version="0.92.4 (unknown)">
  <metadata
     id="metadata10">
    <rdf:RDF>
      <cc:Work
         rdf:about="">
        <dc:format>image/svg+xml</dc:format>
        <dc:type
           rdf:resource="http://purl.org/dc/dcmitype/StillImage" />
        <dc:title></dc:title>
      </cc:Work>
    </rdf:RDF>
  </metadata>
  <defs
     id="defs8" />
  <sodipodi:namedview
     pagecolor="#ffffff"
     bordercolor="#666666"
     borderopacity="1"
     objecttolerance="10"
     gridtolerance="10"
     guidetolerance="10"
     inkscape:pageopacity="0"
     inkscape:pageshadow="2"
     inkscape:window-width="1920"
     inkscape:window-height="1025"
     id="namedview6"
     showgrid="false"
     fit-margin-top="0"
     fit-margin-left="0"
     fit-margin-right="0"
     fit-margin-bottom="0"
     inkscape:zoom="2.36"
     inkscape:cx="50"
     inkscape:cy="14.000001"
     inkscape:window-x="0"
     inkscape:window-y="0"
     inkscape:window-maximized="1"
     inkscape:current-layer="svg4" />
  <path
     d="M 0,20.000625 V 40 H 40 V 0 H 0 Z m 32.234617,-1.5937 c 1.015593,0.253742 1.79057,0.704977 2.501797,1.441205 0.368739,0.393738 0.914346,1.111215 0.95872,1.282459 0.0125,0.05 -1.72682,1.218713 -2.781163,1.873067 -0.0375,0.025 -0.190618,-0.13937 -0.362489,-0.393737 -0.514358,-0.749977 -1.053716,-1.073092 -1.879316,-1.129965 -1.212462,-0.0825 -1.999937,0.552482 -1.987437,1.612449 0,0.311241 0.04375,0.494985 0.171244,0.749977 0.266867,0.552482 0.762476,0.882473 2.317428,1.556201 2.86366,1.231212 4.088622,2.043687 4.849848,3.1999 0.849973,1.28871 1.041218,3.346146 0.463736,4.876098 -0.634981,1.663698 -2.209306,2.793663 -4.424862,3.168651 -0.685604,0.120621 -2.311178,0.101872 -3.047405,-0.03125 -1.606199,-0.285615 -3.129902,-1.079341 -4.069872,-2.120558 -0.368739,-0.406237 -1.085592,-1.466829 -1.041218,-1.543701 0.01875,-0.025 0.18437,-0.126872 0.368738,-0.234994 l 1.485579,-0.856223 1.149965,-0.666853 0.241242,0.356238 c 0.336239,0.514359 1.073091,1.218712 1.517452,1.453705 1.27621,0.673103 3.028655,0.577482 3.891753,-0.196869 0.368739,-0.336239 0.520609,-0.685604 0.520609,-1.199962 0,-0.463736 -0.05625,-0.666855 -0.298115,-1.015593 -0.31124,-0.443737 -0.946221,-0.818725 -2.749915,-1.59995 -2.063685,-0.888723 -2.952407,-1.441206 -3.764882,-2.317428 -0.469985,-0.508109 -0.914347,-1.320584 -1.098715,-1.999937 -0.152496,-0.564983 -0.19062,-1.981189 -0.07,-2.552421 0.424987,-1.999938 1.92994,-3.38427 4.101746,-3.796756 0.704979,-0.133121 2.343677,-0.0825 3.034905,0.08875 z m -9.390331,1.668697 0.0125,1.637449 H 17.650698 V 36.506359 H 13.968314 V 21.713071 H 8.7622262 v -1.606199 l 0.043749,-1.649949 c 0.018749,-0.025 3.1873998,-0.0375 7.0285298,-0.03125 l 6.990407,0.01875 z"
     id="path2"
     inkscape:connector-curvature="0"
     style="fill:#007acc;stroke-width:0.62498051" />
</svg>
