<?xml version="1.0" encoding="UTF-8" standalone="no"?>
<svg
   xmlns:dc="http://purl.org/dc/elements/1.1/"
   xmlns:cc="http://creativecommons.org/ns#"
   xmlns:rdf="http://www.w3.org/1999/02/22-rdf-syntax-ns#"
   xmlns:svg="http://www.w3.org/2000/svg"
   xmlns="http://www.w3.org/2000/svg"
   xmlns:sodipodi="http://sodipodi.sourceforge.net/DTD/sodipodi-0.dtd"
   xmlns:inkscape="http://www.inkscape.org/namespaces/inkscape"
   inkscape:version="1.0 (4035a4f, 2020-05-01)"
   sodipodi:docname="rails.svg"
   id="svg2733"
   version="1.1"
   height="106.839"
   width="106.839">
  <metadata
     id="metadata2739">
    <rdf:RDF>
      <cc:Work
         rdf:about="">
        <dc:format>image/svg+xml</dc:format>
        <dc:type
           rdf:resource="http://purl.org/dc/dcmitype/StillImage" />
        <dc:title></dc:title>
      </cc:Work>
    </rdf:RDF>
  </metadata>
  <defs
     id="defs2737" />
  <sodipodi:namedview
     inkscape:current-layer="g2731"
     inkscape:window-maximized="1"
     inkscape:window-y="23"
     inkscape:window-x="1440"
     inkscape:cy="67.361336"
     inkscape:cx="39.414633"
     inkscape:zoom="5.6548452"
     fit-margin-bottom="0"
     fit-margin-right="0"
     fit-margin-left="0"
     fit-margin-top="0"
     showgrid="false"
     id="namedview2735"
     inkscape:window-height="1035"
     inkscape:window-width="1920"
     inkscape:pageshadow="2"
     inkscape:pageopacity="0"
     guidetolerance="10"
     gridtolerance="10"
     objecttolerance="10"
     borderopacity="1"
     bordercolor="#666666"
     pagecolor="#ffffff" />
  <g
     transform="translate(-21.834368,-8.814941)"
     id="g2709">
    <title
       id="title2706">background</title>
    <rect
       x="-1"
       y="-1"
       width="582"
       height="402"
       id="canvas_background"
       fill="none" />
  </g>
  <g
     transform="translate(-7.253868,-8.110441)"
     id="g2731">
    <title
       id="title2711"
       fill="#cc0000">Layer 1</title>
    <path
       d="m 18.818868,113.96944 h 52.146 c 0,0 -11.566,-26.268999 -8.626,-50.380999 2.941,-24.112 21.956,-35.091 32.738,-36.267 10.781002,-1.177 16.663002,5.489 16.663002,5.489 l 2.353,-3.529 c 0,0 -15.487002,-15.683 -35.091002,-13.918 -19.604,1.764 -33.13,14.702 -41.559,30.385 -8.43,15.684 -13.331,26.661 -16.663,43.128 -3.332,16.466999 -1.961,25.092999 -1.961,25.092999 z"
       id="path3966"
       fill="#cc0000" />
    <path
       d="m 8.429868,87.700441 10.194,0.784 -1.765,10.193 -9.605,-1.176 z"
       id="path3968"
       fill="#cc0000" />
    <path
       d="m 24.504868,66.136441 2.745,-7.645 -9.018,-3.529 -2.94,8.233 z"
       id="path3970"
       fill="#cc0000" />
    <path
       d="m 37.246868,39.867441 5.293,-6.272 -6.861,-4.509 -5.489,6.076 z"
       id="path3972"
       fill="#cc0000" />
    <path
       d="m 51.164868,15.559441 4.705,5.685 6.469,-3.725 -4.705,-5.293 z"
       id="path3974"
       fill="#cc0000" />
    <path
       d="m 74.101868,9.090441 1.176,5.686 8.038,-0.196 -0.785,-5.097 z"
       id="path3976"
       fill="#cc0000" />
    <path
       d="m 101.35087,15.167441 -0.196,3.528 5.489,2.94 1.176,-1.764 z"
       id="path3978"
       fill="#cc0000" />
    <path
       d="m 100.17387,30.262441 v 2.94 l 5.293,0.588 v -2.353 z"
       id="path3980"
       fill="#cc0000" />
    <path
       d="m 83.315868,32.810441 2.548,4.704 3.725,-2.94 -0.784,-3.137 z"
       id="path3982"
       fill="#cc0000" />
    <path
       d="m 75.276868,38.888441 3.921,5.881 -2.353,4.116 -5.685,-6.272 z"
       id="path3984"
       fill="#cc0000" />
    <path
       d="m 67.436868,55.158441 -2.549,5.097 6.665,5.686 1.568,-6.47 z"
       id="path3986"
       fill="#cc0000" />
    <path
       d="m 64.691868,72.997441 -0.392,6.861 8.233,3.529 -0.392,-6.47 z"
       id="path3988"
       fill="#cc0000" />
    <path
       d="m 67.043868,97.306441 1.961,7.057999 10.389,0.588 -3.725,-7.645999 z"
       id="path3990"
       fill="#cc0000" />
  </g>
</svg>
