<?xml version="1.0" encoding="UTF-8" standalone="no"?>
<!-- Generator: Adobe Illustrator 18.1.1, SVG Export Plug-In . SVG Version: 6.00 Build 0)  -->

<svg
   xmlns:dc="http://purl.org/dc/elements/1.1/"
   xmlns:cc="http://creativecommons.org/ns#"
   xmlns:rdf="http://www.w3.org/1999/02/22-rdf-syntax-ns#"
   xmlns:svg="http://www.w3.org/2000/svg"
   xmlns="http://www.w3.org/2000/svg"
   xmlns:sodipodi="http://sodipodi.sourceforge.net/DTD/sodipodi-0.dtd"
   xmlns:inkscape="http://www.inkscape.org/namespaces/inkscape"
   version="1.1"
   id="Layer_1"
   x="0px"
   y="0px"
   viewBox="0 0 800 193.4"
   enable-background="new 0 0 800 193.4"
   xml:space="preserve"
   sodipodi:docname="app_academy.svg"
   inkscape:version="0.92.3 (2405546, 2018-03-11)"><metadata
   id="metadata1001"><rdf:RDF><cc:Work
       rdf:about=""><dc:format>image/svg+xml</dc:format><dc:type
         rdf:resource="http://purl.org/dc/dcmitype/StillImage" /></cc:Work></rdf:RDF></metadata><defs
   id="defs999" /><sodipodi:namedview
   pagecolor="#ffffff"
   bordercolor="#666666"
   borderopacity="1"
   objecttolerance="10"
   gridtolerance="10"
   guidetolerance="10"
   inkscape:pageopacity="0"
   inkscape:pageshadow="2"
   inkscape:window-width="2560"
   inkscape:window-height="1411"
   id="namedview997"
   showgrid="false"
   inkscape:zoom="2.5"
   inkscape:cx="400"
   inkscape:cy="96.699997"
   inkscape:window-x="0"
   inkscape:window-y="0"
   inkscape:window-maximized="1"
   inkscape:current-layer="Layer_1" />
<g
   id="g964"
   style="fill:#ff0000">
	<g
   id="g948"
   style="fill:#ff0000">
		<path
   fill="#FFFFFF"
   d="M270.7,120.8l-5.3-12.2h-23.7l-5.3,12.2h-13.5l24.5-56.7h12.2l24.5,56.7H270.7z M253.6,81l-7.1,16.5h14.2    L253.6,81z"
   id="path928"
   style="fill:#ff0000" />
		<path
   fill="#FFFFFF"
   d="M314.8,76.5c5.1,0,9.6,2.1,13.6,6.4c4,4.2,6,9.6,6,16c0,6.4-2,11.8-6,16.1c-4,4.3-8.6,6.5-13.9,6.5    c-5.3,0-9.6-2.1-12.8-6.4v21.5h-12.2V77.2h12.2v4.9C305.4,78.3,309.8,76.5,314.8,76.5z M301.5,99.1c0,3.5,1,6.4,3,8.7    c2,2.2,4.4,3.4,7.2,3.4c2.8,0,5.3-1.1,7.4-3.4c2.1-2.2,3.2-5.1,3.2-8.6c0-3.5-1-6.5-3.1-8.8c-2.1-2.4-4.5-3.6-7.4-3.6    c-2.9,0-5.3,1.2-7.3,3.5C302.5,92.6,301.5,95.5,301.5,99.1z"
   id="path930"
   style="fill:#ff0000" />
		<path
   fill="#FFFFFF"
   d="M368.8,76.5c5.1,0,9.6,2.1,13.6,6.4c4,4.2,6,9.6,6,16c0,6.4-2,11.8-6,16.1c-4,4.3-8.6,6.5-13.9,6.5    c-5.3,0-9.6-2.1-12.8-6.4v21.5h-12.2V77.2h12.2v4.9C359.3,78.3,363.7,76.5,368.8,76.5z M355.5,99.1c0,3.5,1,6.4,3,8.7    c2,2.2,4.4,3.4,7.2,3.4c2.8,0,5.3-1.1,7.4-3.4c2.1-2.2,3.2-5.1,3.2-8.6c0-3.5-1-6.5-3.1-8.8c-2.1-2.4-4.5-3.6-7.4-3.6    c-2.9,0-5.3,1.2-7.3,3.5C356.4,92.6,355.5,95.5,355.5,99.1z"
   id="path932"
   style="fill:#ff0000" />
		<path
   fill="#FFFFFF"
   d="M460.4,120.8l-5.3-12.2h-23.7l-5.3,12.2h-13.5l24.5-56.7h12.2l24.5,56.7H460.4z M443.3,81l-7.1,16.5h14.2    L443.3,81z"
   id="path934"
   style="fill:#ff0000" />
		<path
   fill="#FFFFFF"
   d="M500.1,110.7c4.1,0,7.7-2,10.9-6.1l7.2,8.1c-5.6,5.8-11.7,8.8-18.2,8.8c-6.5,0-12.1-2.1-16.6-6.2    s-6.8-9.5-6.8-16.2c0-6.7,2.3-12.1,6.8-16.3c4.6-4.2,10-6.3,16.3-6.3c3.1,0,6.3,0.6,9.5,1.9c3.2,1.3,6,3.2,8.5,5.8l-6.3,8.3    c-1.4-1.7-3.1-3-5.1-3.9c-2-0.9-4-1.4-6-1.4c-3.2,0-5.9,1-8.2,3.1c-2.3,2.1-3.4,5-3.4,8.7c0,3.7,1.1,6.6,3.4,8.6    C494.4,109.7,497,110.7,500.1,110.7z"
   id="path936"
   style="fill:#ff0000" />
		<path
   fill="#FFFFFF"
   d="M563.4,120.8H552v-5.3c-3.1,3.9-7,5.9-11.6,5.9c-4.6,0-8.5-1.3-11.6-4c-3.1-2.7-4.7-6.2-4.7-10.7    s1.6-7.8,4.9-10c3.2-2.2,7.7-3.3,13.3-3.3h9.1v-0.2c0-4.6-2.5-7-7.4-7c-2.1,0-4.3,0.4-6.7,1.3c-2.4,0.8-4.3,1.9-6,3.1l-5.4-7.9    c5.7-4.2,12.3-6.2,19.6-6.2c5.3,0,9.6,1.3,13,4c3.3,2.6,5,6.8,5,12.6V120.8z M551.2,104.2v-2.1h-7.6c-4.9,0-7.3,1.5-7.3,4.5    c0,1.6,0.6,2.8,1.7,3.6c1.2,0.8,2.8,1.3,5,1.3c2.2,0,4.1-0.7,5.7-2C550.4,108.2,551.2,106.4,551.2,104.2z"
   id="path938"
   style="fill:#ff0000" />
		<path
   fill="#FFFFFF"
   d="M592,121.5c-5.2,0-9.8-2.2-13.8-6.6c-4.1-4.4-6.1-9.8-6.1-16.3c0-6.5,2-11.8,5.9-15.9    c3.9-4.1,8.6-6.2,13.9-6.2c5.3,0,9.6,1.9,13,5.6V60.7H617v60.1h-12.2v-5.8C601.4,119.3,597.1,121.5,592,121.5z M584.3,99.1    c0,3.5,1.1,6.4,3.2,8.6c2.1,2.2,4.6,3.4,7.4,3.4c2.8,0,5.2-1.1,7.2-3.4c2-2.2,3-5.1,3-8.7c0-3.5-1-6.5-3-8.8    c-2-2.4-4.4-3.5-7.3-3.5c-2.9,0-5.3,1.2-7.4,3.6C585.4,92.6,584.3,95.6,584.3,99.1z"
   id="path940"
   style="fill:#ff0000" />
		<path
   fill="#FFFFFF"
   d="M666.3,114.5c-4.9,4.6-10.7,7-17.3,7c-6.6,0-12.1-2-16.4-6.1c-4.3-4.1-6.5-9.5-6.5-16.4    c0-6.9,2.2-12.3,6.6-16.4c4.4-4.1,9.6-6.1,15.6-6.1c6,0,11.1,1.8,15.3,5.4c4.2,3.6,6.3,8.6,6.3,14.9v6.5h-31.8    c0.4,2.4,1.6,4.3,3.7,5.8c2.1,1.5,4.5,2.3,7.1,2.3c4.3,0,7.8-1.4,10.5-4.3L666.3,114.5z M654.6,88.6c-1.7-1.4-3.7-2.1-6.1-2.1    c-2.4,0-4.6,0.7-6.6,2.2c-2,1.5-3.2,3.4-3.5,5.9h19.1C657.2,92,656.3,90,654.6,88.6z"
   id="path942"
   style="fill:#ff0000" />
		<path
   fill="#FFFFFF"
   d="M718.6,97.3v23.5h-12.2V97c0-3.5-0.5-6-1.6-7.6c-1.1-1.6-2.8-2.4-5.1-2.4c-2.4,0-4.4,0.9-6.2,2.6    c-1.8,1.8-2.7,4.3-2.7,7.7v23.5h-12.2V77.2h12.2v4.9c3.3-3.8,7.2-5.7,11.5-5.7c2.8,0,5.3,0.8,7.5,2.4c2.2,1.6,3.9,3.6,5.1,5.9    c1.7-2.6,3.9-4.7,6.8-6.2c2.8-1.5,5.7-2.2,8.6-2.2c5.1,0,9.3,1.5,12.4,4.6c3.1,3.1,4.7,7.5,4.7,13.3v26.5H735V97    c0-6.7-2.5-10.1-7.4-10.1c-2.4,0-4.5,0.9-6.3,2.6C719.5,91.3,718.6,93.9,718.6,97.3z"
   id="path944"
   style="fill:#ff0000" />
		<path
   fill="#FFFFFF"
   d="M765.8,138c-4.3,0-8.3-1.7-12.1-5.2l5.5-9c2.1,2,4.2,3,6.3,3c1.1,0,2.1-0.6,2.9-1.7    c0.8-1.1,1.2-2.3,1.2-3.5c0-1.2-5.6-16-16.9-44.4h13l10.6,27.2L787,77.2h13l-20.3,51.4c-1.2,3-3,5.3-5.6,6.9    C771.7,137.2,768.9,138,765.8,138z"
   id="path946"
   style="fill:#ff0000" />
	</g>
	<g
   id="g962"
   style="fill:#ff0000">
		<g
   id="g952"
   style="fill:#ff0000">
			<path
   fill="#FFFFFF"
   d="M96.7,193.4C43.4,193.4,0,150,0,96.7S43.4,0,96.7,0s96.7,43.4,96.7,96.7S150,193.4,96.7,193.4z      M96.7,10.8c-47.3,0-85.8,38.5-85.8,85.8c0,47.3,38.5,85.8,85.8,85.8s85.8-38.5,85.8-85.8C182.5,49.4,144,10.8,96.7,10.8z"
   id="path950"
   style="fill:#ff0000" />
		</g>
		<path
   fill="#FFFFFF"
   d="M78,55.5c-3.9-6.4-11.3-10-20.7-10c-8.4,0-15.7,2.8-20.9,8.2l-1.1,1.1l6.5,8.4l1.4-1.5    c4.6-4.8,11-5.5,14.4-5.5c4.6,0,7.6,1.5,9.3,4.4c1.5,2.5,1.1,5.6,1.1,8.3v0.4h-0.7c-7,0-15.7,0-22.8,2.5    c-10.1,3.7-13.7,11.4-13.7,17.3c0,8.4,6.7,17.3,19.8,17.3c6.2,0,11.4-2,17.4-5.6v4.4h13V69.4C81.1,64.5,80.7,60,78,55.5z     M52.5,96.2c-6.4,0-9.5-3.9-9.5-7.7c0-1.6,0.6-3.3,2-4.8c1.3-1.5,3.4-2.9,6.5-3.6c3.1-0.7,7.6-0.9,10.9-0.9c1.2,0,5.8,0.1,5.8,0.1    v3C68.1,91.8,59,96.2,52.5,96.2z"
   id="path954"
   style="fill:#ff0000" />
		<g
   id="g958"
   style="fill:#ff0000">
			
				<rect
   x="91.3"
   y="28.7"
   transform="matrix(0.9428 0.3333 -0.3333 0.9428 37.7561 -26.698)"
   fill="#FFFFFF"
   width="10.8"
   height="135.9"
   id="rect956"
   style="fill:#ff0000" />
		</g>
		<path
   fill="#FFFFFF"
   d="M132.1,69.3h-3.4l-25.6,73h11.5l6.7-21h19.3l7.6,21h11.9L132.1,69.3z M124,112.3l6.4-19.1l7.1,19.1H124z"
   id="path960"
   style="fill:#ff0000" />
	</g>
</g>
<g
   id="g966"
   style="fill:#ff0000">
</g>
<g
   id="g968"
   style="fill:#ff0000">
</g>
<g
   id="g970"
   style="fill:#ff0000">
</g>
<g
   id="g972"
   style="fill:#ff0000">
</g>
<g
   id="g974"
   style="fill:#ff0000">
</g>
<g
   id="g976"
   style="fill:#ff0000">
</g>
<g
   id="g978"
   style="fill:#ff0000">
</g>
<g
   id="g980"
   style="fill:#ff0000">
</g>
<g
   id="g982"
   style="fill:#ff0000">
</g>
<g
   id="g984"
   style="fill:#ff0000">
</g>
<g
   id="g986"
   style="fill:#ff0000">
</g>
<g
   id="g988"
   style="fill:#ff0000">
</g>
<g
   id="g990"
   style="fill:#ff0000">
</g>
<g
   id="g992"
   style="fill:#ff0000">
</g>
<g
   id="g994"
   style="fill:#ff0000">
</g>
</svg>